<svg xmlns="http://www.w3.org/2000/svg" id="&#x421;&#x43B;&#x43E;&#x439;_1" data-name="&#x421;&#x43B;&#x43E;&#x439; 1" width="221.62" height="22.36" viewBox="0 0 221.62 22.36"><path d="M14.25,35a6.9,6.9,0,0,1-3.36-.74,4.74,4.74,0,0,1-2-2.24,10.38,10.38,0,0,1-.79-3.8l3.82-.65a11.65,11.65,0,0,0,.28,2.25,2.78,2.78,0,0,0,.7,1.34,1.65,1.65,0,0,0,1.17.45,1.22,1.22,0,0,0,1.17-.54,2.4,2.4,0,0,0,.31-1.24,3.88,3.88,0,0,0-.66-2.3,10.89,10.89,0,0,0-1.73-1.87l-2.26-2a9.22,9.22,0,0,1-2-2.32,6.13,6.13,0,0,1-.77-3.17,5.31,5.31,0,0,1,1.58-4.13A6.16,6.16,0,0,1,14,12.67a5.88,5.88,0,0,1,2.69.54,4.16,4.16,0,0,1,1.63,1.44,5.92,5.92,0,0,1,.8,2,14.07,14.07,0,0,1,.29,2.11l-3.8.57c0-.67-.09-1.25-.17-1.75A2.45,2.45,0,0,0,15,16.35a1.36,1.36,0,0,0-1.09-.43,1.28,1.28,0,0,0-1.15.58,2.24,2.24,0,0,0-.38,1.28,3.23,3.23,0,0,0,.52,1.9,9.09,9.09,0,0,0,1.44,1.54l2.21,1.94a12.42,12.42,0,0,1,2.35,2.71,6.71,6.71,0,0,1,1,3.75,5.59,5.59,0,0,1-.7,2.77,5,5,0,0,1-1.95,1.94A6,6,0,0,1,14.25,35Z" transform="translate(-8.06 -12.67)"></path><path d="M22.19,34.73V12.94h9.49V16H26.62v5.79h3.91v3.09H26.62v6.84h5.12v3Z" transform="translate(-8.06 -12.67)"></path><path d="M34,34.73V12.94h5.65a12.37,12.37,0,0,1,3.78.5,4.34,4.34,0,0,1,2.42,1.76,6.18,6.18,0,0,1,.85,3.5,11.3,11.3,0,0,1-.23,2.38,4.49,4.49,0,0,1-.81,1.8A3.86,3.86,0,0,1,44,24.1l3,10.63H42.47L40,24.86H38.41v9.87Zm4.44-12.51H39.7a3.53,3.53,0,0,0,1.7-.35,1.92,1.92,0,0,0,.87-1.06,5.27,5.27,0,0,0,.26-1.76,4,4,0,0,0-.56-2.3,2.32,2.32,0,0,0-2-.8H38.41Z" transform="translate(-8.06 -12.67)"></path><path d="M49.66,34.73V12.94H55a10.65,10.65,0,0,1,4.32.71,4.22,4.22,0,0,1,2.19,2.23,10.05,10.05,0,0,1,.65,3.89v7.94a10.51,10.51,0,0,1-.65,4A4.3,4.3,0,0,1,59.33,34a9.81,9.81,0,0,1-4.24.74Zm4.44-3.09H55a3,3,0,0,0,1.76-.39,1.76,1.76,0,0,0,.66-1.16,11.23,11.23,0,0,0,.13-1.9v-9a8,8,0,0,0-.17-1.82,1.6,1.6,0,0,0-.7-1A3.47,3.47,0,0,0,55,16.06H54.1Z" transform="translate(-8.06 -12.67)"></path><path d="M67.58,34.73V26.09L63.32,12.94h4.17l2.35,7.67L72,12.94h4l-4.2,13.15v8.64Z" transform="translate(-8.06 -12.67)"></path><path d="M84,35a7.3,7.3,0,0,1-3.85-.85,4.5,4.5,0,0,1-1.92-2.45,12,12,0,0,1-.55-3.89V12.94H82.1V28.46a9.31,9.31,0,0,0,.13,1.59,2.42,2.42,0,0,0,.53,1.26A1.59,1.59,0,0,0,84,31.8a1.63,1.63,0,0,0,1.31-.49,2.41,2.41,0,0,0,.52-1.26A11.9,11.9,0,0,0,86,28.46V12.94h4.38v14.9a12,12,0,0,1-.55,3.89,4.5,4.5,0,0,1-1.92,2.45A7.3,7.3,0,0,1,84,35Z" transform="translate(-8.06 -12.67)"></path><path d="M93.46,34.73V12.94H97.9v9.2l3.93-9.2h4.3L102,22.73l4.39,12H102L98.6,25l-.7,1.24v8.53Z" transform="translate(-8.06 -12.67)"></path><path d="M176.33,34.69V14.49h-4.12V12.9h10.17v1.59h-4v20.2Z" transform="translate(-8.06 -12.67)"></path><path d="M184.75,34.69V12.9h7.88v1.59h-5.81v8.18h4.73v1.5h-4.73v9h5.86v1.53Z" transform="translate(-8.06 -12.67)"></path><path d="M200.54,35a5.48,5.48,0,0,1-3.4-.91,4.7,4.7,0,0,1-1.66-2.46,12.27,12.27,0,0,1-.46-3.43V19.49a11.91,11.91,0,0,1,.48-3.55,4.38,4.38,0,0,1,1.68-2.39,5.64,5.64,0,0,1,3.36-.86,5.46,5.46,0,0,1,3.08.75,4.12,4.12,0,0,1,1.6,2.14,10,10,0,0,1,.49,3.29v1.32h-1.94V18.93a11.53,11.53,0,0,0-.23-2.45,2.72,2.72,0,0,0-.93-1.59,3.24,3.24,0,0,0-2-.56,3.46,3.46,0,0,0-2.22.6,3,3,0,0,0-1,1.71,11.51,11.51,0,0,0-.25,2.56v9.28a9.75,9.75,0,0,0,.31,2.69,2.81,2.81,0,0,0,1.06,1.61,3.54,3.54,0,0,0,2.1.54,3.08,3.08,0,0,0,2.05-.59,2.89,2.89,0,0,0,.92-1.65,12.13,12.13,0,0,0,.23-2.49V27.16h1.94v1.29a11.53,11.53,0,0,1-.45,3.38,4.29,4.29,0,0,1-1.56,2.3A5.17,5.17,0,0,1,200.54,35Z" transform="translate(-8.06 -12.67)"></path><path d="M211.6,34.69V14.49h-4.12V12.9h10.17v1.59h-4v20.2Z" transform="translate(-8.06 -12.67)"></path><path d="M224.67,35a5.35,5.35,0,0,1-2.94-.74A4.61,4.61,0,0,1,220,32.15a9.48,9.48,0,0,1-.72-3.11l1.8-.53a11.48,11.48,0,0,0,.49,2.43,3.59,3.59,0,0,0,1.1,1.72,3.12,3.12,0,0,0,2.07.63,3.19,3.19,0,0,0,2.26-.75,3.12,3.12,0,0,0,.81-2.39,4.28,4.28,0,0,0-.72-2.5,12.92,12.92,0,0,0-2-2.21l-3.84-3.69a6.84,6.84,0,0,1-1.51-2.06,5.54,5.54,0,0,1-.48-2.32,4.4,4.4,0,0,1,1.34-3.47,5.14,5.14,0,0,1,3.58-1.21,6.7,6.7,0,0,1,2.08.29,3.91,3.91,0,0,1,1.59,1,4.54,4.54,0,0,1,1,1.71,10.33,10.33,0,0,1,.51,2.55l-1.75.46a9.83,9.83,0,0,0-.44-2.36,3,3,0,0,0-1.05-1.49A4,4,0,0,0,222,15a2.66,2.66,0,0,0-.86,2.18,3.69,3.69,0,0,0,.34,1.61,5.18,5.18,0,0,0,1.2,1.56L226.5,24a13.75,13.75,0,0,1,2.24,2.69,6.13,6.13,0,0,1,.94,3.33,5.48,5.48,0,0,1-.63,2.75,4.09,4.09,0,0,1-1.77,1.65A5.83,5.83,0,0,1,224.67,35Z" transform="translate(-8.06 -12.67)"></path><path d="M110.48,34.74l4.6-21.8h2.15l4.63,21.8h-2l-1.08-5.84h-5.19l-1.1,5.84Zm3.39-7.32h4.62l-2.31-11.76Z" transform="translate(-8.06 -12.67)"></path><path d="M124.49,34.74V12.94h4.93a6.56,6.56,0,0,1,3.21.66,3.78,3.78,0,0,1,1.68,1.91,7.71,7.71,0,0,1,.52,3,9.31,9.31,0,0,1-.27,2.28,4.4,4.4,0,0,1-.92,1.83,3.16,3.16,0,0,1-1.83,1l3.34,11.14h-2L130,24h-3.42V34.74Zm2.05-12.22h2.77a4.08,4.08,0,0,0,2.13-.46,2.48,2.48,0,0,0,1.07-1.34,6.5,6.5,0,0,0,.32-2.23,5.35,5.35,0,0,0-.69-3,3.22,3.22,0,0,0-2.78-1h-2.82Z" transform="translate(-8.06 -12.67)"></path><path d="M143.33,35a5.53,5.53,0,0,1-3.41-.92,4.68,4.68,0,0,1-1.65-2.46,11.91,11.91,0,0,1-.46-3.43V19.53a12.31,12.31,0,0,1,.47-3.55A4.49,4.49,0,0,1,140,13.59a5.7,5.7,0,0,1,3.37-.86,5.48,5.48,0,0,1,3.08.75,4.16,4.16,0,0,1,1.6,2.14,10.08,10.08,0,0,1,.48,3.3v1.31h-1.93V19a11.53,11.53,0,0,0-.23-2.45,2.72,2.72,0,0,0-.93-1.59,3.25,3.25,0,0,0-2.05-.56,3.5,3.5,0,0,0-2.22.6,3.05,3.05,0,0,0-1,1.71,11.47,11.47,0,0,0-.26,2.56v9.28a10.15,10.15,0,0,0,.31,2.69,2.88,2.88,0,0,0,1.07,1.62,3.61,3.61,0,0,0,2.09.53,3,3,0,0,0,2.06-.59,2.86,2.86,0,0,0,.92-1.65,12.13,12.13,0,0,0,.23-2.49V27.2h1.93v1.29a11.54,11.54,0,0,1-.44,3.38,4.36,4.36,0,0,1-1.56,2.3A5.17,5.17,0,0,1,143.33,35Z" transform="translate(-8.06 -12.67)"></path><path d="M151.67,34.74V12.94h2.07V22.6h6.86V12.94h2.05v21.8H160.6V24.14h-6.86v10.6Z" transform="translate(-8.06 -12.67)"></path><path d="M166.52,34.74V12.94h2v21.8Z" transform="translate(-8.06 -12.67)"></path></svg>