<svg xmlns="http://www.w3.org/2000/svg" data-name="Слой 1" width="221.62" height="22.36" style=""><rect id="backgroundrect" width="100%" height="100%" x="0" y="0" fill="none" stroke="none"/><g class="currentLayer" style=""><title>Layer 1</title><path d="M6.189999580383301,22.329999923706055 a6.9,6.9 0 0 1 -3.36,-0.7400000000000001 a4.74,4.74 0 0 1 -2,-2.24 a10.38,10.38 0 0 1 -0.79,-3.8 l3.8200000000000003,-0.6500000000000001 a11.65,11.65 0 0 0 0.28,2.25 a2.7800000000000002,2.7800000000000002 0 0 0 0.7000000000000001,1.34 a1.6500000000000001,1.6500000000000001 0 0 0 1.17,0.45 a1.22,1.22 0 0 0 1.17,-0.54 a2.4,2.4 0 0 0 0.31000000000000005,-1.24 a3.88,3.88 0 0 0 -0.6600000000000001,-2.3 a10.89,10.89 0 0 0 -1.73,-1.87 l-2.26,-2 a9.22,9.22 0 0 1 -2,-2.3200000000000003 a6.13,6.13 0 0 1 -0.77,-3.17 a5.3100000000000005,5.3100000000000005 0 0 1 1.58,-4.13 A6.16,6.16 0 0 1 5.939999580383301,-7.629394538355427e-8 a5.88,5.88 0 0 1 2.6900000000000004,0.54 a4.16,4.16 0 0 1 1.6300000000000001,1.44 a5.92,5.92 0 0 1 0.8,2 a14.07,14.07 0 0 1 0.29000000000000004,2.11 l-3.8,0.5700000000000001 c0,-0.6700000000000002 -0.09000000000000002,-1.25 -0.17,-1.75 A2.45,2.45 0 0 0 6.939999580383301,3.679999923706056 a1.36,1.36 0 0 0 -1.09,-0.43000000000000005 a1.28,1.28 0 0 0 -1.15,0.5800000000000001 a2.24,2.24 0 0 0 -0.38000000000000006,1.28 a3.23,3.23 0 0 0 0.52,1.9 a9.09,9.09 0 0 0 1.44,1.54 l2.21,1.94 a12.42,12.42 0 0 1 2.35,2.71 a6.71,6.71 0 0 1 1,3.75 a5.59,5.59 0 0 1 -0.7000000000000001,2.77 a5,5 0 0 1 -1.9500000000000002,1.94 A6,6 0 0 1 6.189999580383301,22.329999923706055 z" id="svg_1" class="selected" fill="#ffffff" fill-opacity="1"/><path d="M14.129999580383302,22.05999992370605 V0.2699999237060542 h9.49 V3.3299999237060547 H18.5599995803833 v5.79 h3.91 v3.09 H18.5599995803833 v6.84 h5.12 v3 z" id="svg_2" class="selected" fill="#ffffff" fill-opacity="1"/><path d="M25.9399995803833,22.05999992370605 V0.2699999237060542 h5.65 a12.37,12.37 0 0 1 3.7800000000000002,0.5 a4.34,4.34 0 0 1 2.42,1.7600000000000002 a6.18,6.18 0 0 1 0.8500000000000001,3.5 a11.3,11.3 0 0 1 -0.23,2.38 a4.49,4.49 0 0 1 -0.81,1.8 A3.8600000000000003,3.8600000000000003 0 0 1 35.9399995803833,11.429999923706056 l3,10.63 H34.4099995803833 L31.9399995803833,12.189999923706054 H30.349999580383297 v9.870000000000001 zm4.44,-12.51 H31.639999580383304 a3.5300000000000002,3.5300000000000002 0 0 0 1.7000000000000002,-0.35000000000000003 a1.92,1.92 0 0 0 0.8700000000000001,-1.06 a5.27,5.27 0 0 0 0.26,-1.7600000000000002 a4,4 0 0 0 -0.56,-2.3 a2.3200000000000003,2.3200000000000003 0 0 0 -2,-0.8 H30.349999580383297 z" id="svg_3" class="selected" fill="#ffffff" fill-opacity="1"/><path d="M41.5999995803833,22.05999992370605 V0.2699999237060542 H46.9399995803833 a10.65,10.65 0 0 1 4.32,0.7100000000000001 a4.22,4.22 0 0 1 2.19,2.23 a10.05,10.05 0 0 1 0.6500000000000001,3.89 v7.94 a10.51,10.51 0 0 1 -0.6500000000000001,4 A4.3,4.3 0 0 1 51.2699995803833,21.329999923706055 a9.81,9.81 0 0 1 -4.24,0.7400000000000001 zm4.44,-3.09 H46.9399995803833 a3,3 0 0 0 1.7600000000000002,-0.39000000000000007 a1.7600000000000002,1.7600000000000002 0 0 0 0.6600000000000001,-1.1600000000000001 a11.23,11.23 0 0 0 0.13,-1.9 v-9 a8,8 0 0 0 -0.17,-1.82 a1.6,1.6 0 0 0 -0.7000000000000001,-1 A3.47,3.47 0 0 0 46.9399995803833,3.3899999237060534 H46.0399995803833 z" id="svg_4" class="selected" fill="#ffffff" fill-opacity="1"/><path d="M59.5199995803833,22.05999992370605 V13.419999923706055 L55.2599995803833,0.2699999237060542 h4.17 l2.35,7.67 L63.9399995803833,0.2699999237060542 h4 l-4.2,13.15 v8.64 z" id="svg_5" class="selected" fill="#ffffff" fill-opacity="1"/><path d="M75.9399995803833,22.329999923706055 a7.3,7.3 0 0 1 -3.85,-0.8500000000000001 a4.5,4.5 0 0 1 -1.92,-2.45 a12,12 0 0 1 -0.55,-3.89 V0.2699999237060542 H74.0399995803833 V15.789999923706056 a9.31,9.31 0 0 0 0.13,1.59 a2.42,2.42 0 0 0 0.53,1.26 A1.59,1.59 0 0 0 75.9399995803833,19.129999923706055 a1.6300000000000001,1.6300000000000001 0 0 0 1.31,-0.49000000000000005 a2.41,2.41 0 0 0 0.52,-1.26 A11.9,11.9 0 0 0 77.9399995803833,15.789999923706056 V0.2699999237060542 h4.38 v14.9 a12,12 0 0 1 -0.55,3.89 a4.5,4.5 0 0 1 -1.92,2.45 A7.3,7.3 0 0 1 75.9399995803833,22.329999923706055 z" id="svg_6" class="selected" fill="#ffffff" fill-opacity="1"/><path d="M85.3999995803833,22.05999992370605 V0.2699999237060542 H89.8399995803833 v9.2 l3.93,-9.2 h4.3 L93.9399995803833,10.059999923706055 l4.39,12 H93.9399995803833 L90.5399995803833,12.329999923706055 l-0.7000000000000001,1.24 v8.53 z" id="svg_7" class="selected" fill="#ffffff" fill-opacity="1"/><path d="M168.2699995803833,22.019999923706052 V1.819999923706055 h-4.12 V0.22999992370605504 h10.17 v1.59 h-4 v20.2 z" id="svg_8" class="selected" fill="#ffffff" fill-opacity="1"/><path d="M176.6899995803833,22.019999923706052 V0.22999992370605504 h7.88 v1.59 h-5.8100000000000005 v8.18 h4.73 v1.5 h-4.73 v9 h5.86 v1.53 z" id="svg_9" class="selected" fill="#ffffff" fill-opacity="1"/><path d="M192.4799995803833,22.329999923706055 a5.48,5.48 0 0 1 -3.4,-0.91 a4.7,4.7 0 0 1 -1.6600000000000001,-2.46 a12.27,12.27 0 0 1 -0.46,-3.43 V6.819999923706053 a11.91,11.91 0 0 1 0.48000000000000004,-3.55 a4.38,4.38 0 0 1 1.6800000000000002,-2.39 a5.640000000000001,5.640000000000001 0 0 1 3.36,-0.8600000000000001 a5.46,5.46 0 0 1 3.08,0.7500000000000001 a4.12,4.12 0 0 1 1.6,2.14 a10,10 0 0 1 0.49000000000000005,3.29 v1.32 h-1.94 V6.259999923706054 a11.53,11.53 0 0 0 -0.23,-2.45 a2.72,2.72 0 0 0 -0.93,-1.59 a3.24,3.24 0 0 0 -2,-0.56 a3.46,3.46 0 0 0 -2.22,0.6000000000000001 a3,3 0 0 0 -1,1.71 a11.51,11.51 0 0 0 -0.25,2.56 v9.28 a9.75,9.75 0 0 0 0.31000000000000005,2.6900000000000004 a2.81,2.81 0 0 0 1.06,1.61 a3.54,3.54 0 0 0 2.1,0.54 a3.08,3.08 0 0 0 2.05,-0.5900000000000001 a2.89,2.89 0 0 0 0.92,-1.6500000000000001 a12.13,12.13 0 0 0 0.23,-2.49 V14.489999923706055 h1.94 v1.29 a11.53,11.53 0 0 1 -0.45,3.38 a4.29,4.29 0 0 1 -1.56,2.3 A5.17,5.17 0 0 1 192.4799995803833,22.329999923706055 z" id="svg_10" class="selected" fill="#ffffff" fill-opacity="1"/><path d="M203.5399995803833,22.019999923706052 V1.819999923706055 h-4.12 V0.22999992370605504 h10.17 v1.59 h-4 v20.2 z" id="svg_11" class="selected" fill="#ffffff" fill-opacity="1"/><path d="M216.6099995803833,22.329999923706055 a5.35,5.35 0 0 1 -2.94,-0.7400000000000001 A4.61,4.61 0 0 1 211.9399995803833,19.479999923706053 a9.48,9.48 0 0 1 -0.7200000000000001,-3.11 l1.8,-0.53 a11.48,11.48 0 0 0 0.49000000000000005,2.43 a3.59,3.59 0 0 0 1.1,1.7200000000000002 a3.12,3.12 0 0 0 2.07,0.6300000000000001 a3.19,3.19 0 0 0 2.26,-0.7500000000000001 a3.12,3.12 0 0 0 0.81,-2.39 a4.28,4.28 0 0 0 -0.7200000000000001,-2.5 a12.92,12.92 0 0 0 -2,-2.21 l-3.84,-3.6900000000000004 a6.84,6.84 0 0 1 -1.51,-2.06 a5.54,5.54 0 0 1 -0.48000000000000004,-2.3200000000000003 a4.4,4.4 0 0 1 1.34,-3.47 a5.14,5.14 0 0 1 3.58,-1.21 a6.7,6.7 0 0 1 2.08,0.29000000000000004 a3.91,3.91 0 0 1 1.59,1 a4.54,4.54 0 0 1 1,1.71 a10.33,10.33 0 0 1 0.51,2.55 l-1.75,0.46 a9.83,9.83 0 0 0 -0.44000000000000006,-2.36 a3,3 0 0 0 -1.05,-1.49 A4,4 0 0 0 213.9399995803833,2.3299999237060547 a2.66,2.66 0 0 0 -0.8600000000000001,2.18 a3.6900000000000004,3.6900000000000004 0 0 0 0.3400000000000001,1.61 a5.18,5.18 0 0 0 1.2,1.56 L218.4399995803833,11.329999923706055 a13.75,13.75 0 0 1 2.24,2.6900000000000004 a6.13,6.13 0 0 1 0.9400000000000001,3.33 a5.48,5.48 0 0 1 -0.6300000000000001,2.75 a4.09,4.09 0 0 1 -1.77,1.6500000000000001 A5.83,5.83 0 0 1 216.6099995803833,22.329999923706055 z" id="svg_12" class="selected" fill="#ffffff" fill-opacity="1"/><path d="M102.4199995803833,22.069999923706057 l4.6,-21.8 h2.15 l4.63,21.8 h-2 l-1.08,-5.84 h-5.19 l-1.1,5.84 zm3.39,-7.32 h4.62 l-2.31,-11.76 z" id="svg_13" class="selected" fill="#ffffff" fill-opacity="1"/><path d="M116.4299995803833,22.069999923706057 V0.2699999237060542 h4.93 a6.5600000000000005,6.5600000000000005 0 0 1 3.21,0.6600000000000001 a3.7800000000000002,3.7800000000000002 0 0 1 1.6800000000000002,1.9100000000000001 a7.71,7.71 0 0 1 0.52,3 a9.31,9.31 0 0 1 -0.27,2.2800000000000002 a4.4,4.4 0 0 1 -0.92,1.83 a3.16,3.16 0 0 1 -1.83,1 l3.34,11.14 h-2 L121.9399995803833,11.329999923706055 h-3.42 V22.069999923706057 zm2.05,-12.22 h2.77 a4.08,4.08 0 0 0 2.13,-0.46 a2.48,2.48 0 0 0 1.07,-1.34 a6.5,6.5 0 0 0 0.32000000000000006,-2.23 a5.35,5.35 0 0 0 -0.6900000000000002,-3 a3.22,3.22 0 0 0 -2.7800000000000002,-1 h-2.8200000000000003 z" id="svg_14" class="selected" fill="#ffffff" fill-opacity="1"/><path d="M135.2699995803833,22.329999923706055 a5.53,5.53 0 0 1 -3.41,-0.92 a4.68,4.68 0 0 1 -1.6500000000000001,-2.46 a11.91,11.91 0 0 1 -0.46,-3.43 V6.859999923706056 a12.31,12.31 0 0 1 0.47000000000000003,-3.55 A4.49,4.49 0 0 1 131.9399995803833,0.9199999237060545 a5.7,5.7 0 0 1 3.37,-0.8600000000000001 a5.48,5.48 0 0 1 3.08,0.7500000000000001 a4.16,4.16 0 0 1 1.6,2.14 a10.08,10.08 0 0 1 0.48000000000000004,3.3 v1.31 h-1.9300000000000002 V6.329999923706055 a11.53,11.53 0 0 0 -0.23,-2.45 a2.72,2.72 0 0 0 -0.93,-1.59 a3.25,3.25 0 0 0 -2.05,-0.56 a3.5,3.5 0 0 0 -2.22,0.6000000000000001 a3.05,3.05 0 0 0 -1,1.71 a11.47,11.47 0 0 0 -0.26,2.56 v9.28 a10.15,10.15 0 0 0 0.31000000000000005,2.6900000000000004 a2.88,2.88 0 0 0 1.07,1.62 a3.6100000000000003,3.6100000000000003 0 0 0 2.09,0.53 a3,3 0 0 0 2.06,-0.5900000000000001 a2.8600000000000003,2.8600000000000003 0 0 0 0.92,-1.6500000000000001 a12.13,12.13 0 0 0 0.23,-2.49 V14.529999923706054 h1.9300000000000002 v1.29 a11.54,11.54 0 0 1 -0.44000000000000006,3.38 a4.36,4.36 0 0 1 -1.56,2.3 A5.17,5.17 0 0 1 135.2699995803833,22.329999923706055 z" id="svg_15" class="selected" fill="#ffffff" fill-opacity="1"/><path d="M143.6099995803833,22.069999923706057 V0.2699999237060542 h2.07 V9.929999923706056 h6.86 V0.2699999237060542 h2.05 v21.8 H152.5399995803833 V11.469999923706055 h-6.86 v10.6 z" id="svg_16" class="selected" fill="#ffffff" fill-opacity="1"/><path d="M158.4599995803833,22.069999923706057 V0.2699999237060542 h2 v21.8 z" id="svg_17" class="selected" fill="#ffffff" fill-opacity="1"/></g></svg>