<svg width="24" height="24" viewBox="0 0 24 24" fill="#fff" xmlns="http://www.w3.org/2000/svg">
<path fill-rule="evenodd" clip-rule="evenodd" d="M2 19.1111C2 18.8754 2.09099 18.6493 2.25295 18.4826C2.41492 18.3159 2.63459 18.2222 2.86364 18.2222H20.1364C20.3654 18.2222 20.5851 18.3159 20.747 18.4826C20.909 18.6493 21 18.8754 21 19.1111C21 19.3469 20.909 19.573 20.747 19.7397C20.5851 19.9064 20.3654 20 20.1364 20H2.86364C2.63459 20 2.41492 19.9064 2.25295 19.7397C2.09099 19.573 2 19.3469 2 19.1111ZM2 12C2 11.7643 2.09099 11.5382 2.25295 11.3715C2.41492 11.2048 2.63459 11.1111 2.86364 11.1111H20.1364C20.3654 11.1111 20.5851 11.2048 20.747 11.3715C20.909 11.5382 21 11.7643 21 12C21 12.2357 20.909 12.4618 20.747 12.6285C20.5851 12.7952 20.3654 12.8889 20.1364 12.8889H2.86364C2.63459 12.8889 2.41492 12.7952 2.25295 12.6285C2.09099 12.4618 2 12.2357 2 12ZM2 4.88889C2 4.65314 2.09099 4.42705 2.25295 4.26035C2.41492 4.09365 2.63459 4 2.86364 4H20.1364C20.3654 4 20.5851 4.09365 20.747 4.26035C20.909 4.42705 21 4.65314 21 4.88889C21 5.12464 20.909 5.35073 20.747 5.51743C20.5851 5.68413 20.3654 5.77778 20.1364 5.77778H2.86364C2.63459 5.77778 2.41492 5.68413 2.25295 5.51743C2.09099 5.35073 2 5.12464 2 4.88889Z"/>
</svg>
