<svg width="24" height="24" viewBox="0 0 24 24" fill="none" xmlns="http://www.w3.org/2000/svg">
<path d="M16.1347 8.28694C16.3421 8.10086 16.618 7.99799 16.9043 8.00003C17.1906 8.00207 17.4649 8.10887 17.6692 8.29788C17.8736 8.4869 17.992 8.74335 17.9996 9.01312C18.0072 9.28289 17.9033 9.54488 17.7098 9.74381L11.8363 16.6674C11.7353 16.7699 11.6134 16.8522 11.4779 16.9093C11.3424 16.9665 11.196 16.9972 11.0476 16.9998C10.8992 17.0024 10.7518 16.9768 10.6141 16.9244C10.4765 16.8721 10.3514 16.7941 10.2465 16.6952L6.35139 13.0238C6.24292 12.9286 6.15592 12.8137 6.09558 12.686C6.03523 12.5584 6.00279 12.4206 6.00017 12.2809C5.99756 12.1412 6.02483 12.0024 6.08035 11.8728C6.13588 11.7432 6.21853 11.6255 6.32337 11.5267C6.42821 11.4279 6.55309 11.35 6.69056 11.2976C6.82803 11.2453 6.97528 11.2196 7.12352 11.2221C7.27176 11.2245 7.41796 11.2551 7.55338 11.312C7.68881 11.3689 7.8107 11.4509 7.91177 11.5531L10.9943 14.4571L16.1067 8.31746C16.1159 8.30678 16.1258 8.29659 16.1362 8.28694H16.1347Z" fill="white"/>
</svg>
