<svg width="24" height="24" viewBox="0 0 24 24" fill="#fff" xmlns="http://www.w3.org/2000/svg">
    <path d="M15.875 10.675C15.8754 10.7731 15.8548 10.87 15.8147 10.9586C15.7747 11.0472 15.7163 11.1252 15.6438 11.187L11.8938 14.3572C11.782 14.4537 11.6417 14.5065 11.4969 14.5065C11.3522 14.5065 11.2119 14.4537 11.1 14.3572L7.35005 11.0754C7.22241 10.964 7.14215 10.8039 7.12691 10.6304C7.11167 10.4568 7.16271 10.284 7.2688 10.15C7.37489 10.0159 7.52733 9.93164 7.6926 9.91564C7.85786 9.89964 8.02241 9.95324 8.15005 10.0646L11.5 12.9985L14.85 10.1631C14.9418 10.0828 15.0535 10.0319 15.172 10.0162C15.2904 10.0005 15.4107 10.0208 15.5185 10.0747C15.6264 10.1285 15.7172 10.2137 15.7804 10.3201C15.8436 10.4265 15.8764 10.5497 15.875 10.675Z"/>
</svg>
