<svg width="24" height="24" viewBox="0 0 24 24" fill="#000" xmlns="http://www.w3.org/2000/svg">
<path fill-rule="evenodd" clip-rule="evenodd" d="M12.0026 10.59L6.7052 5.29257C6.3151 4.90248 5.68264 4.90248 5.29256 5.29257C4.90248 5.68268 4.90248 6.31513 5.29256 6.70524L10.5899 12.0026L5.29256 17.3C4.90248 17.6901 4.90248 18.3225 5.29256 18.7127C5.68264 19.1027 6.3151 19.1027 6.7052 18.7127L12.0026 13.4153L17.3 18.7127C17.69 19.1027 18.3225 19.1027 18.7126 18.7127C19.1027 18.3225 19.1027 17.6901 18.7126 17.3L13.4152 12.0026L18.7126 6.70524C19.1027 6.31513 19.1027 5.68268 18.7126 5.29257C18.3225 4.90248 17.69 4.90248 17.3 5.29257L12.0026 10.59Z"/>
</svg>
