<svg width="24" height="24" viewBox="0 0 24 24" fill="#000" xmlns="http://www.w3.org/2000/svg">
    <path d="M20 12C20 14.1217 19.1571 16.1566 17.6569 17.6569C16.1566 19.1571 14.1217 20 12 20C9.87827 20 7.84344 19.1571 6.34315 17.6569C4.84285 16.1566 4 14.1217 4 12C4 9.87827 4.84285 7.84344 6.34315 6.34315C7.84344 4.84285 9.87827 4 12 4C14.1217 4 16.1566 4.84285 17.6569 6.34315C19.1571 7.84344 20 9.87827 20 12ZM9.354 8.646C9.26011 8.55211 9.13278 8.49937 9 8.49937C8.86722 8.49937 8.73989 8.55211 8.646 8.646C8.55211 8.73989 8.49937 8.86722 8.49937 9C8.49937 9.13278 8.55211 9.26011 8.646 9.354L11.293 12L8.646 14.646C8.59951 14.6925 8.56264 14.7477 8.53748 14.8084C8.51232 14.8692 8.49937 14.9343 8.49937 15C8.49937 15.0657 8.51232 15.1308 8.53748 15.1916C8.56264 15.2523 8.59951 15.3075 8.646 15.354C8.73989 15.4479 8.86722 15.5006 9 15.5006C9.06574 15.5006 9.13084 15.4877 9.19158 15.4625C9.25232 15.4374 9.30751 15.4005 9.354 15.354L12 12.707L14.646 15.354C14.6925 15.4005 14.7477 15.4374 14.8084 15.4625C14.8692 15.4877 14.9343 15.5006 15 15.5006C15.0657 15.5006 15.1308 15.4877 15.1916 15.4625C15.2523 15.4374 15.3075 15.4005 15.354 15.354C15.4005 15.3075 15.4374 15.2523 15.4625 15.1916C15.4877 15.1308 15.5006 15.0657 15.5006 15C15.5006 14.9343 15.4877 14.8692 15.4625 14.8084C15.4374 14.7477 15.4005 14.6925 15.354 14.646L12.707 12L15.354 9.354C15.4005 9.30751 15.4374 9.25232 15.4625 9.19158C15.4877 9.13084 15.5006 9.06574 15.5006 9C15.5006 8.93426 15.4877 8.86916 15.4625 8.80842C15.4374 8.74768 15.4005 8.69249 15.354 8.646C15.3075 8.59951 15.2523 8.56264 15.1916 8.53748C15.1308 8.51232 15.0657 8.49937 15 8.49937C14.9343 8.49937 14.8692 8.51232 14.8084 8.53748C14.7477 8.56264 14.6925 8.59951 14.646 8.646L12 11.293L9.354 8.646Z"/>
</svg>
