<svg width="24" height="24" viewBox="0 0 24 24" fill="#000" xmlns="http://www.w3.org/2000/svg">
    <path fill-rule="evenodd" clip-rule="evenodd" d="M11.999 7.71582C10.9183 7.71624 9.86691 8.06675 9.00219 8.71486C8.13746 9.36297 7.50599 10.2738 7.20235 11.3109C6.8987 12.348 6.93923 13.4556 7.31787 14.4677C7.6965 15.4799 8.39286 16.3421 9.30264 16.9253C10.2124 17.5084 11.2867 17.7812 12.3644 17.7026C13.4422 17.624 14.4655 17.1984 15.2811 16.4894C16.0967 15.7805 16.6607 14.8264 16.8885 13.77C17.1164 12.7137 16.9958 11.6119 16.545 10.6298C16.4959 10.5104 16.4949 10.3767 16.5422 10.2565C16.5895 10.1364 16.6815 10.0393 16.7988 9.98539C16.9161 9.93151 17.0497 9.9251 17.1716 9.96749C17.2936 10.0099 17.3944 10.0978 17.453 10.2128C17.994 11.3914 18.1385 12.7136 17.8651 13.9812C17.5916 15.2489 16.9147 16.3938 15.9359 17.2445C14.9571 18.0952 13.729 18.6058 12.4356 18.7C11.1422 18.7941 9.85314 18.4667 8.76145 17.7667C7.66976 17.0668 6.83424 16.0319 6.38004 14.8173C5.92584 13.6026 5.87742 12.2734 6.24201 11.0289C6.60661 9.78442 7.36461 8.69153 8.40246 7.91397C9.44032 7.13641 10.7022 6.71604 11.999 6.71582V7.71582Z"/>
    <path d="M11.999 9.18191V5.24991C11.999 5.2024 12.0126 5.15589 12.0381 5.11581C12.0636 5.07573 12.1 5.04374 12.143 5.0236C12.186 5.00345 12.2339 4.99598 12.281 5.00205C12.3281 5.00813 12.3725 5.0275 12.409 5.05791L14.769 7.02391C14.889 7.12391 14.889 7.30791 14.769 7.40791L12.409 9.37391C12.3725 9.40431 12.3281 9.42368 12.281 9.42976C12.2339 9.43584 12.186 9.42836 12.143 9.40822C12.1 9.38807 12.0636 9.35609 12.0381 9.31601C12.0126 9.27593 11.999 9.22941 11.999 9.18191Z"/>
</svg>
