<svg width="24" height="24" viewBox="0 0 24 24" fill="#000" xmlns="http://www.w3.org/2000/svg">
    <path d="M19.5022 6.44039C19.5956 6.53412 19.6481 6.66106 19.6481 6.79339C19.6481 6.92573 19.5956 7.05267 19.5022 7.14639L18.4592 8.19039L16.4592 6.19039L17.5022 5.14639C17.596 5.05266 17.7231 5 17.8557 5C17.9883 5 18.1154 5.05266 18.2092 5.14639L19.5022 6.43939V6.44039ZM17.7522 8.89639L15.7522 6.89639L8.9392 13.7104C8.88417 13.7654 8.84273 13.8325 8.8182 13.9064L8.0132 16.3204C7.9986 16.3644 7.99653 16.4116 8.00722 16.4567C8.0179 16.5018 8.04093 16.5431 8.07371 16.5759C8.1065 16.6087 8.14776 16.6317 8.19288 16.6424C8.23799 16.6531 8.2852 16.651 8.3292 16.6364L10.7432 15.8314C10.817 15.8072 10.8841 15.7661 10.9392 15.7114L17.7522 8.89739V8.89639Z"/>
    <path fill-rule="evenodd" clip-rule="evenodd" d="M5 18.0005C5 18.3983 5.15804 18.7798 5.43934 19.0611C5.72064 19.3425 6.10218 19.5005 6.5 19.5005H17.5C17.8978 19.5005 18.2794 19.3425 18.5607 19.0611C18.842 18.7798 19 18.3983 19 18.0005V12.0005C19 11.8679 18.9473 11.7407 18.8536 11.6469C18.7598 11.5532 18.6326 11.5005 18.5 11.5005C18.3674 11.5005 18.2402 11.5532 18.1464 11.6469C18.0527 11.7407 18 11.8679 18 12.0005V18.0005C18 18.1331 17.9473 18.2603 17.8536 18.354C17.7598 18.4478 17.6326 18.5005 17.5 18.5005H6.5C6.36739 18.5005 6.24021 18.4478 6.14645 18.354C6.05268 18.2603 6 18.1331 6 18.0005V7.00049C6 6.86788 6.05268 6.7407 6.14645 6.64693C6.24021 6.55317 6.36739 6.50049 6.5 6.50049H13C13.1326 6.50049 13.2598 6.44781 13.3536 6.35404C13.4473 6.26027 13.5 6.1331 13.5 6.00049C13.5 5.86788 13.4473 5.7407 13.3536 5.64693C13.2598 5.55317 13.1326 5.50049 13 5.50049H6.5C6.10218 5.50049 5.72064 5.65852 5.43934 5.93983C5.15804 6.22113 5 6.60266 5 7.00049V18.0005Z" />
</svg>
