<svg width="24" height="24" viewBox="0 0 24 24" fill="#fff" xmlns="http://www.w3.org/2000/svg">
<path d="M12 20.0009C12.5304 20.0009 13.0391 19.7902 13.4142 19.4151C13.7893 19.04 14 18.5313 14 18.0009H10C10 18.5313 10.2107 19.04 10.5858 19.4151C10.9609 19.7902 11.4696 20.0009 12 20.0009ZM12.995 5.09987C13.009 4.96083 12.9936 4.8204 12.95 4.68765C12.9063 4.5549 12.8353 4.43276 12.7416 4.32913C12.6478 4.2255 12.5334 4.14267 12.4057 4.08598C12.2779 4.02929 12.1397 4 12 4C11.8603 4 11.7221 4.02929 11.5943 4.08598C11.4666 4.14267 11.3522 4.2255 11.2584 4.32913C11.1647 4.43276 11.0937 4.5549 11.05 4.68765C11.0064 4.8204 10.991 4.96083 11.005 5.09987C9.87472 5.32978 8.85862 5.94324 8.12876 6.83638C7.39891 7.72952 7.00015 8.84745 7 10.0009C7 11.0989 6.5 16.0009 5 17.0009H19C17.5 16.0009 17 11.0989 17 10.0009C17 7.58087 15.28 5.56087 12.995 5.09987Z"/>
</svg>
