<svg width="16" height="16" viewBox="0 0 16 16" fill="none" xmlns="http://www.w3.org/2000/svg">
<path d="M14 8.125C14 8.125 11.75 4 8 4C4.25 4 2 8.125 2 8.125C2 8.125 4.25 12.25 8 12.25C11.75 12.25 14 8.125 14 8.125ZM2.87975 8.125C3.24239 7.57384 3.65948 7.06051 4.12475 6.59275C5.09 5.626 6.41 4.75 8 4.75C9.59 4.75 10.9093 5.626 11.876 6.59275C12.3413 7.06051 12.7584 7.57384 13.121 8.125C13.0775 8.19025 13.0295 8.26225 12.9748 8.341C12.7235 8.701 12.3523 9.181 11.876 9.65725C10.9093 10.624 9.58925 11.5 8 11.5C6.41 11.5 5.09075 10.624 4.124 9.65725C3.65873 9.18948 3.24164 8.67616 2.879 8.125H2.87975Z" fill="black"/>
<path d="M7.99988 6.25C7.5026 6.25 7.02568 6.44754 6.67405 6.79917C6.32242 7.15081 6.12488 7.62772 6.12488 8.125C6.12488 8.62228 6.32242 9.09919 6.67405 9.45083C7.02568 9.80246 7.5026 10 7.99988 10C8.49716 10 8.97407 9.80246 9.3257 9.45083C9.67733 9.09919 9.87488 8.62228 9.87488 8.125C9.87488 7.62772 9.67733 7.15081 9.3257 6.79917C8.97407 6.44754 8.49716 6.25 7.99988 6.25ZM5.37488 8.125C5.37488 7.42881 5.65144 6.76113 6.14372 6.26884C6.63601 5.77656 7.30368 5.5 7.99988 5.5C8.69607 5.5 9.36375 5.77656 9.85603 6.26884C10.3483 6.76113 10.6249 7.42881 10.6249 8.125C10.6249 8.82119 10.3483 9.48887 9.85603 9.98116C9.36375 10.4734 8.69607 10.75 7.99988 10.75C7.30368 10.75 6.63601 10.4734 6.14372 9.98116C5.65144 9.48887 5.37488 8.82119 5.37488 8.125Z" fill="black"/>
</svg>
