<svg width="24" height="24" viewBox="0 0 24 24" fill="#fff" xmlns="http://www.w3.org/2000/svg">
    <path d="M6 5.00003C5.73478 5.00003 5.48043 5.10539 5.29289 5.29292C5.10536 5.48046 5 5.73481 5 6.00003C5 6.26524 5.10536 6.5196 5.29289 6.70714C5.48043 6.89467 5.73478 7.00003 6 7.00003C6.26522 7.00003 6.51957 6.89467 6.70711 6.70714C6.89464 6.5196 7 6.26524 7 6.00003C7 5.73481 6.89464 5.48046 6.70711 5.29292C6.51957 5.10539 6.26522 5.00003 6 5.00003ZM4 6.00003C3.99952 5.5129 4.17684 5.04233 4.49869 4.67667C4.82053 4.311 5.26477 4.07536 5.74802 4.01399C6.23127 3.95262 6.72031 4.06972 7.12335 4.34333C7.52638 4.61694 7.8157 5.02824 7.937 5.50003H16.063C16.1513 5.1587 16.3282 4.84676 16.5758 4.59583C16.8235 4.3449 17.1331 4.16389 17.4732 4.07115C17.8134 3.97841 18.172 3.97723 18.5127 4.06773C18.8535 4.15824 19.1642 4.3372 19.4135 4.5865C19.6628 4.8358 19.8418 5.14656 19.9323 5.48731C20.0228 5.82806 20.0216 6.18667 19.9289 6.52681C19.8361 6.86696 19.6551 7.17654 19.4042 7.42419C19.1533 7.67185 18.8413 7.84877 18.5 7.93703V16.063C18.8413 16.1513 19.1533 16.3282 19.4042 16.5759C19.6551 16.8235 19.8361 17.1331 19.9289 17.4732C20.0216 17.8134 20.0228 18.172 19.9323 18.5127C19.8418 18.8535 19.6628 19.1643 19.4135 19.4136C19.1642 19.6629 18.8535 19.8418 18.5127 19.9323C18.172 20.0228 17.8134 20.0216 17.4732 19.9289C17.1331 19.8362 16.8235 19.6552 16.5758 19.4042C16.3282 19.1533 16.1513 18.8414 16.063 18.5H7.937C7.84874 18.8414 7.67182 19.1533 7.42417 19.4042C7.17651 19.6552 6.86693 19.8362 6.52679 19.9289C6.18664 20.0216 5.82803 20.0228 5.48728 19.9323C5.14654 19.8418 4.83577 19.6629 4.58647 19.4136C4.33718 19.1643 4.15821 18.8535 4.06771 18.5127C3.9772 18.172 3.97838 17.8134 4.07112 17.4732C4.16386 17.1331 4.34487 16.8235 4.5958 16.5759C4.84673 16.3282 5.15867 16.1513 5.5 16.063V7.93703C5.0706 7.82616 4.69024 7.57572 4.41871 7.22508C4.14718 6.87445 3.99989 6.44351 4 6.00003ZM6.5 7.93703V16.063C7.203 16.243 7.756 16.797 7.937 17.5H16.063C16.1527 17.1541 16.3332 16.8385 16.5858 16.5859C16.8385 16.3332 17.1541 16.1527 17.5 16.063V7.93703C17.1541 7.84736 16.8385 7.66685 16.5858 7.41419C16.3332 7.16153 16.1527 6.84591 16.063 6.50003H7.937C7.84734 6.84591 7.66682 7.16153 7.41416 7.41419C7.1615 7.66685 6.84588 7.84736 6.5 7.93703ZM18 5.00003C17.7348 5.00003 17.4804 5.10539 17.2929 5.29292C17.1054 5.48046 17 5.73481 17 6.00003C17 6.26524 17.1054 6.5196 17.2929 6.70714C17.4804 6.89467 17.7348 7.00003 18 7.00003C18.2652 7.00003 18.5196 6.89467 18.7071 6.70714C18.8946 6.5196 19 6.26524 19 6.00003C19 5.73481 18.8946 5.48046 18.7071 5.29292C18.5196 5.10539 18.2652 5.00003 18 5.00003ZM6 17C5.73478 17 5.48043 17.1054 5.29289 17.2929C5.10536 17.4805 5 17.7348 5 18C5 18.2652 5.10536 18.5196 5.29289 18.7071C5.48043 18.8947 5.73478 19 6 19C6.26522 19 6.51957 18.8947 6.70711 18.7071C6.89464 18.5196 7 18.2652 7 18C7 17.7348 6.89464 17.4805 6.70711 17.2929C6.51957 17.1054 6.26522 17 6 17ZM18 17C17.7348 17 17.4804 17.1054 17.2929 17.2929C17.1054 17.4805 17 17.7348 17 18C17 18.2652 17.1054 18.5196 17.2929 18.7071C17.4804 18.8947 17.7348 19 18 19C18.2652 19 18.5196 18.8947 18.7071 18.7071C18.8946 18.5196 19 18.2652 19 18C19 17.7348 18.8946 17.4805 18.7071 17.2929C18.5196 17.1054 18.2652 17 18 17Z"/>
</svg>
