<svg width="24" height="24" viewBox="0 0 24 24" fill="#fff" xmlns="http://www.w3.org/2000/svg">
    <path d="M5 7.5C5 7.10218 5.15804 6.72064 5.43934 6.43934C5.72064 6.15804 6.10218 6 6.5 6H9.264C10.222 6 11.024 6.56 11.575 7.184C11.985 7.648 12.48 8 13 8H17.5C17.8978 8 18.2794 8.15804 18.5607 8.43934C18.842 8.72064 19 9.10218 19 9.5V16.5C19 16.8978 18.842 17.2794 18.5607 17.5607C18.2794 17.842 17.8978 18 17.5 18H6.5C6.10218 18 5.72064 17.842 5.43934 17.5607C5.15804 17.2794 5 16.8978 5 16.5V7.5ZM6.5 7C6.36739 7 6.24021 7.05268 6.14645 7.14645C6.05268 7.24021 6 7.36739 6 7.5V10H18V9.5C18 9.36739 17.9473 9.24021 17.8536 9.14645C17.7598 9.05268 17.6326 9 17.5 9H13C12.036 9 11.29 8.371 10.826 7.846C10.374 7.334 9.82 7 9.264 7H6.5ZM18 11H6V16.5C6 16.6326 6.05268 16.7598 6.14645 16.8536C6.24021 16.9473 6.36739 17 6.5 17H17.5C17.6326 17 17.7598 16.9473 17.8536 16.8536C17.9473 16.7598 18 16.6326 18 16.5V11Z"/>
</svg>
