<svg width="24" height="24" viewBox="0 0 24 24" fill="#fff" xmlns="http://www.w3.org/2000/svg">
    <path d="M9.5 11C9.36739 11 9.24021 11.0527 9.14645 11.1464C9.05268 11.2402 9 11.3674 9 11.5C9 11.6326 9.05268 11.7598 9.14645 11.8536C9.24021 11.9473 9.36739 12 9.5 12H14.5C14.6326 12 14.7598 11.9473 14.8536 11.8536C14.9473 11.7598 15 11.6326 15 11.5C15 11.3674 14.9473 11.2402 14.8536 11.1464C14.7598 11.0527 14.6326 11 14.5 11H9.5ZM9 13.5C9 13.3674 9.05268 13.2402 9.14645 13.1464C9.24021 13.0527 9.36739 13 9.5 13H14.5C14.6326 13 14.7598 13.0527 14.8536 13.1464C14.9473 13.2402 15 13.3674 15 13.5C15 13.6326 14.9473 13.7598 14.8536 13.8536C14.7598 13.9473 14.6326 14 14.5 14H9.5C9.36739 14 9.24021 13.9473 9.14645 13.8536C9.05268 13.7598 9 13.6326 9 13.5ZM9 15.5C9 15.3674 9.05268 15.2402 9.14645 15.1464C9.24021 15.0527 9.36739 15 9.5 15H11.5C11.6326 15 11.7598 15.0527 11.8536 15.1464C11.9473 15.2402 12 15.3674 12 15.5C12 15.6326 11.9473 15.7598 11.8536 15.8536C11.7598 15.9473 11.6326 16 11.5 16H9.5C9.36739 16 9.24021 15.9473 9.14645 15.8536C9.05268 15.7598 9 15.6326 9 15.5Z"/>
    <path d="M13.5 4H8C7.46957 4 6.96086 4.21071 6.58579 4.58579C6.21071 4.96086 6 5.46957 6 6V18C6 18.5304 6.21071 19.0391 6.58579 19.4142C6.96086 19.7893 7.46957 20 8 20H16C16.5304 20 17.0391 19.7893 17.4142 19.4142C17.7893 19.0391 18 18.5304 18 18V8.5L13.5 4ZM13.5 5V7C13.5 7.39782 13.658 7.77936 13.9393 8.06066C14.2206 8.34196 14.6022 8.5 15 8.5H17V18C17 18.2652 16.8946 18.5196 16.7071 18.7071C16.5196 18.8946 16.2652 19 16 19H8C7.73478 19 7.48043 18.8946 7.29289 18.7071C7.10536 18.5196 7 18.2652 7 18V6C7 5.73478 7.10536 5.48043 7.29289 5.29289C7.48043 5.10536 7.73478 5 8 5H13.5Z"/>
</svg>
