<svg width="24" height="24" viewBox="0 0 24 24" fill="#fff" xmlns="http://www.w3.org/2000/svg">
    <path d="M12 12C12.8951 12 13.7536 11.6444 14.3865 11.0115C15.0194 10.3786 15.375 9.52011 15.375 8.625C15.375 7.72989 15.0194 6.87145 14.3865 6.23851C13.7536 5.60558 12.8951 5.25 12 5.25C11.1049 5.25 10.2464 5.60558 9.61351 6.23851C8.98058 6.87145 8.625 7.72989 8.625 8.625C8.625 9.52011 8.98058 10.3786 9.61351 11.0115C10.2464 11.6444 11.1049 12 12 12ZM14.25 8.625C14.25 9.22174 14.0129 9.79403 13.591 10.216C13.169 10.6379 12.5967 10.875 12 10.875C11.4033 10.875 10.831 10.6379 10.409 10.216C9.98705 9.79403 9.75 9.22174 9.75 8.625C9.75 8.02826 9.98705 7.45597 10.409 7.03401C10.831 6.61205 11.4033 6.375 12 6.375C12.5967 6.375 13.169 6.61205 13.591 7.03401C14.0129 7.45597 14.25 8.02826 14.25 8.625ZM18.75 17.625C18.75 18.75 17.625 18.75 17.625 18.75H6.375C6.375 18.75 5.25 18.75 5.25 17.625C5.25 16.5 6.375 13.125 12 13.125C17.625 13.125 18.75 16.5 18.75 17.625ZM17.625 17.6205C17.6239 17.3438 17.4517 16.5112 16.689 15.7485C15.9555 15.015 14.5751 14.25 12 14.25C9.42375 14.25 8.0445 15.015 7.311 15.7485C6.54825 16.5112 6.37725 17.3438 6.375 17.6205H17.625Z"/>
</svg>
